<svg xmlns="http://www.w3.org/2000/svg" width="1200" height="675" viewBox="0 0 1200 675" role="img" aria-labelledby="title desc">
  <title id="title">企业知识库与内部检索打通脱敏概览</title><desc id="desc">抽象展示文档、知识库、检索与回答链路。</desc>
  <defs><linearGradient id="bg" x2="1" y2="1"><stop stop-color="#07131a"/><stop offset="1" stop-color="#122c33"/></linearGradient></defs><rect width="1200" height="675" rx="28" fill="url(#bg)"/><circle cx="1060" cy="70" r="250" fill="#2dd4bf" opacity=".08"/>
  <text x="72" y="74" fill="#83a0a7" font-family="Arial,PingFang SC" font-size="18" letter-spacing="5">SANITIZED CASE STUDY · KNOWLEDGE</text><text x="72" y="142" fill="#fff" font-family="Arial,PingFang SC" font-size="44" font-weight="700">企业知识库与内部检索打通</text><text x="72" y="182" fill="#88a5ad" font-family="Arial,PingFang SC" font-size="20">文档同步 · 权限边界 · 检索编排 · 问答验证</text>
  <g stroke="#2dd4bf" stroke-opacity=".55" stroke-width="3" fill="none"><path d="M238 392H420"/><path d="M550 392H732"/><path d="M862 392H1030"/></g>
  <g font-family="Arial,PingFang SC"><rect x="72" y="300" width="166" height="184" rx="22" fill="#10252c" stroke="#2dd4bf" stroke-opacity=".35"/><text x="155" y="366" fill="#2dd4bf" font-size="34" text-anchor="middle">01</text><text x="155" y="412" fill="#fff" font-size="18" text-anchor="middle">企业文档</text><text x="155" y="442" fill="#76939b" font-size="14" text-anchor="middle">同步与解析</text><rect x="420" y="300" width="166" height="184" rx="22" fill="#10252c" stroke="#2dd4bf" stroke-opacity=".35"/><text x="503" y="366" fill="#2dd4bf" font-size="34" text-anchor="middle">02</text><text x="503" y="412" fill="#fff" font-size="18" text-anchor="middle">知识空间</text><text x="503" y="442" fill="#76939b" font-size="14" text-anchor="middle">权限与索引</text><rect x="732" y="300" width="166" height="184" rx="22" fill="#10252c" stroke="#2dd4bf" stroke-opacity=".35"/><text x="815" y="366" fill="#2dd4bf" font-size="34" text-anchor="middle">03</text><text x="815" y="412" fill="#fff" font-size="18" text-anchor="middle">统一检索</text><text x="815" y="442" fill="#76939b" font-size="14" text-anchor="middle">公私分流</text><rect x="1030" y="326" width="106" height="132" rx="53" fill="#2dd4bf" opacity=".14"/><text x="1083" y="386" fill="#2dd4bf" font-size="28" text-anchor="middle">AI</text><text x="1083" y="415" fill="#fff" font-size="13" text-anchor="middle">回答</text></g>
  <text x="72" y="630" fill="#64748b" font-family="Arial,PingFang SC" font-size="15">抽象架构图 · 已移除接口、账号和服务器信息</text>
</svg>
