<svg xmlns="http://www.w3.org/2000/svg" width="1200" height="675" viewBox="0 0 1200 675" role="img" aria-labelledby="title desc">
  <title id="title">SEO 官网 PC 端开发脱敏概览</title><desc id="desc">抽象展示落地页结构与搜索增长指标，不含真实业务数据。</desc>
  <defs><linearGradient id="bg" x2="1" y2="1"><stop stop-color="#0d1018"/><stop offset="1" stop-color="#202235"/></linearGradient><linearGradient id="g"><stop stop-color="#f6c453"/><stop offset="1" stop-color="#fb7185"/></linearGradient></defs>
  <rect width="1200" height="675" rx="28" fill="url(#bg)"/><circle cx="1060" cy="40" r="260" fill="#f6c453" opacity=".07"/>
  <text x="72" y="74" fill="#8e98aa" font-family="Arial,PingFang SC" font-size="18" letter-spacing="5">SANITIZED CASE STUDY · SEO</text><text x="72" y="142" fill="#fff" font-family="Arial,PingFang SC" font-size="48" font-weight="700">SEO 官网 PC 端开发</text><text x="72" y="182" fill="#929bad" font-family="Arial,PingFang SC" font-size="20">落地页开发 · 公共结构 · 咨询链路 · 验收交付</text>
  <rect x="72" y="238" width="710" height="330" rx="20" fill="#111722" stroke="#fff" stroke-opacity=".1"/><rect x="102" y="270" width="650" height="48" rx="12" fill="#1b2230"/><rect x="126" y="286" width="140" height="14" rx="7" fill="#fff" opacity=".25"/><rect x="612" y="281" width="112" height="24" rx="12" fill="#f6c453" opacity=".85"/>
  <rect x="102" y="344" width="402" height="190" rx="16" fill="#171e2b"/><rect x="530" y="344" width="222" height="190" rx="16" fill="#1b2230"/><path d="M132 484c74-30 106-94 170-62s102-76 168-46" fill="none" stroke="url(#g)" stroke-width="7" stroke-linecap="round"/>
  <g font-family="Arial,PingFang SC"><text x="846" y="286" fill="#f6c453" font-size="16">PAGE QUALITY</text><text x="846" y="334" fill="#fff" font-size="28" font-weight="700">可访问 · 可追踪 · 可复用</text><rect x="846" y="382" width="230" height="74" rx="14" fill="#ffffff" opacity=".05"/><text x="870" y="413" fill="#94a3b8" font-size="15">公共组件</text><text x="870" y="440" fill="#fff" font-size="22" font-weight="700">统一收口</text><rect x="846" y="472" width="230" height="74" rx="14" fill="#ffffff" opacity=".05"/><text x="870" y="503" fill="#94a3b8" font-size="15">交付状态</text><text x="870" y="530" fill="#fff" font-size="22" font-weight="700">验收完成</text></g>
  <text x="72" y="630" fill="#64748b" font-family="Arial,PingFang SC" font-size="15">配图为脱敏概览，不是业务页面截图</text>
</svg>
