<svg xmlns="http://www.w3.org/2000/svg" width="1200" height="675" viewBox="0 0 1200 675" role="img" aria-labelledby="title desc">
  <title id="title">知识库 AI 二期脱敏概览</title><desc id="desc">抽象展示多来源数据、身份权限和五阶段检索。</desc><defs><linearGradient id="bg" x2="1" y2="1"><stop stop-color="#07101c"/><stop offset="1" stop-color="#142445"/></linearGradient><linearGradient id="a"><stop stop-color="#60a5fa"/><stop offset="1" stop-color="#818cf8"/></linearGradient></defs><rect width="1200" height="675" rx="28" fill="url(#bg)"/><circle cx="1060" cy="70" r="260" fill="#818cf8" opacity=".09"/>
  <text x="72" y="74" fill="#879bb9" font-family="Arial,PingFang SC" font-size="18" letter-spacing="5">SANITIZED CASE STUDY · AI SYSTEM</text><text x="72" y="142" fill="#fff" font-family="Arial,PingFang SC" font-size="48" font-weight="700">知识库 AI 二期</text><text x="72" y="182" fill="#8fa2bf" font-family="Arial,PingFang SC" font-size="20">多来源同步 · 身份解析 · 权限判定 · 统一检索</text>
  <rect x="72" y="246" width="1056" height="318" rx="24" fill="#0c1729" stroke="#fff" stroke-opacity=".1"/>
  <g font-family="Arial,PingFang SC"><text x="106" y="292" fill="#60a5fa" font-size="15">FIVE-STAGE RETRIEVAL PIPELINE</text><g fill="#142540" stroke="#60a5fa" stroke-opacity=".28"><rect x="106" y="332" width="168" height="132" rx="18"/><rect x="310" y="332" width="168" height="132" rx="18"/><rect x="514" y="332" width="168" height="132" rx="18"/><rect x="718" y="332" width="168" height="132" rx="18"/><rect x="922" y="332" width="168" height="132" rx="18"/></g><g fill="#60a5fa" font-size="13" text-anchor="middle"><text x="190" y="374">01 · SOURCE</text><text x="394" y="374">02 · IDENTITY</text><text x="598" y="374">03 · POLICY</text><text x="802" y="374">04 · RETRIEVE</text><text x="1006" y="374">05 · ANSWER</text></g><g fill="#fff" font-size="18" text-anchor="middle"><text x="190" y="420">数据归一</text><text x="394" y="420">身份解析</text><text x="598" y="420">权限判定</text><text x="802" y="420">检索融合</text><text x="1006" y="420">结果编排</text></g><path d="M274 398h36m168 0h36m168 0h36m168 0h36" stroke="url(#a)" stroke-width="4"/></g><text x="72" y="630" fill="#64748b" font-family="Arial,PingFang SC" font-size="15">抽象架构图 · 不含真实数据源、接口或账号信息</text>
</svg>
