<svg xmlns="http://www.w3.org/2000/svg" width="1200" height="675" viewBox="0 0 1200 675" role="img" aria-labelledby="title desc">
  <title id="title">咨询入口与广告分析接入脱敏概览</title><desc id="desc">抽象展示咨询按钮、渠道参数与转化事件。</desc><defs><linearGradient id="bg" x2="1" y2="1"><stop stop-color="#11101b"/><stop offset="1" stop-color="#2a1933"/></linearGradient><linearGradient id="a"><stop stop-color="#c084fc"/><stop offset="1" stop-color="#fb7185"/></linearGradient></defs>
  <rect width="1200" height="675" rx="28" fill="url(#bg)"/><circle cx="1050" cy="65" r="250" fill="#c084fc" opacity=".08"/><text x="72" y="74" fill="#a28fae" font-family="Arial,PingFang SC" font-size="18" letter-spacing="5">SANITIZED CASE STUDY · CONVERSION</text><text x="72" y="142" fill="#fff" font-family="Arial,PingFang SC" font-size="46" font-weight="700">咨询入口与广告分析接入</text><text x="72" y="182" fill="#a493ae" font-family="Arial,PingFang SC" font-size="20">入口统一 · 参数解析 · 事件统计 · 问题定界</text>
  <rect x="72" y="238" width="650" height="330" rx="20" fill="#181523" stroke="#fff" stroke-opacity=".1"/><rect x="102" y="270" width="590" height="42" rx="10" fill="#231d31"/><rect x="102" y="338" width="376" height="190" rx="16" fill="#21192c"/><rect x="504" y="338" width="188" height="190" rx="16" fill="#251c31"/><rect x="544" y="464" width="110" height="38" rx="19" fill="url(#a)"/>
  <g font-family="Arial,PingFang SC"><text x="790" y="294" fill="#c084fc" font-size="16">CONVERSION FLOW</text><circle cx="816" cy="368" r="20" fill="#c084fc" opacity=".2"/><circle cx="952" cy="368" r="20" fill="#fb7185" opacity=".2"/><circle cx="1088" cy="368" r="20" fill="#60a5fa" opacity=".2"/><path d="M838 368h92m44 0h92" stroke="#8c7896" stroke-width="2" stroke-dasharray="6 7"/><text x="816" y="414" fill="#fff" font-size="15" text-anchor="middle">渠道</text><text x="952" y="414" fill="#fff" font-size="15" text-anchor="middle">咨询</text><text x="1088" y="414" fill="#fff" font-size="15" text-anchor="middle">事件</text><text x="790" y="500" fill="#8792a5" font-size="16">多页面验证</text><rect x="790" y="518" width="300" height="8" rx="4" fill="#30283a"/><rect x="790" y="518" width="270" height="8" rx="4" fill="url(#a)"/></g><text x="72" y="630" fill="#64748b" font-family="Arial,PingFang SC" font-size="15">配图为脱敏概览，不含真实渠道与厂商配置</text>
</svg>
