<svg xmlns="http://www.w3.org/2000/svg" width="1200" height="675" viewBox="0 0 1200 675" role="img" aria-labelledby="title desc">
  <title id="title">企业文档检索 PC 端脱敏概览</title><desc id="desc">抽象展示 PC 扫码、手机选择、轮询回显和 AI 分析流程。</desc><defs><linearGradient id="bg" x2="1" y2="1"><stop stop-color="#07121b"/><stop offset="1" stop-color="#133047"/></linearGradient><linearGradient id="a"><stop stop-color="#22d3ee"/><stop offset="1" stop-color="#60a5fa"/></linearGradient></defs><rect width="1200" height="675" rx="28" fill="url(#bg)"/><circle cx="1040" cy="60" r="250" fill="#22d3ee" opacity=".08"/>
  <text x="72" y="74" fill="#81a2b7" font-family="Arial,PingFang SC" font-size="18" letter-spacing="5">SANITIZED CASE STUDY · CROSS DEVICE</text><text x="72" y="142" fill="#fff" font-family="Arial,PingFang SC" font-size="46" font-weight="700">企业文档检索 PC 端</text><text x="72" y="182" fill="#8da8b8" font-family="Arial,PingFang SC" font-size="20">扫码选择 · 跨端轮询 · 附件回显 · AI 分析</text>
  <g font-family="Arial,PingFang SC"><rect x="72" y="246" width="550" height="316" rx="22" fill="#0d1c28" stroke="#22d3ee" stroke-opacity=".25"/><rect x="104" y="280" width="486" height="44" rx="10" fill="#142938"/><circle cx="130" cy="302" r="6" fill="#22d3ee"/><rect x="104" y="350" width="220" height="174" rx="16" fill="#122635"/><rect x="356" y="350" width="234" height="76" rx="16" fill="#142938"/><rect x="356" y="448" width="234" height="76" rx="16" fill="#142938"/><rect x="176" y="386" width="78" height="78" fill="none" stroke="#22d3ee" stroke-width="8" stroke-dasharray="18 7"/><text x="473" y="395" fill="#fff" font-size="17" text-anchor="middle">附件回显</text><text x="473" y="493" fill="#fff" font-size="17" text-anchor="middle">发送分析</text><rect x="752" y="274" width="202" height="260" rx="34" fill="#0d1c28" stroke="#60a5fa" stroke-opacity=".38"/><rect x="778" y="310" width="150" height="172" rx="16" fill="#132b3d"/><text x="853" y="366" fill="#60a5fa" font-size="15" text-anchor="middle">MOBILE</text><text x="853" y="407" fill="#fff" font-size="21" text-anchor="middle">选择文档</text><circle cx="853" cy="507" r="8" fill="#60a5fa"/><path d="M622 404h130m202 0h120" stroke="url(#a)" stroke-width="4" stroke-dasharray="10 9"/><text x="687" y="385" fill="#7fa4b9" font-size="13" text-anchor="middle">QR</text><text x="1014" y="385" fill="#7fa4b9" font-size="13" text-anchor="middle">POLL</text><circle cx="1090" cy="404" r="44" fill="#22d3ee" opacity=".14"/><text x="1090" y="412" fill="#22d3ee" font-size="22" text-anchor="middle">AI</text></g><text x="72" y="630" fill="#64748b" font-family="Arial,PingFang SC" font-size="15">进行中 · 配图为脱敏流程概览，不代表已完成端到端验收</text>
</svg>
